<svg xmlns="http://www.w3.org/2000/svg" width="33" height="22">
  <g>
    <path d="M30.27,4.48l-6.88,5.67A.74.74,0,0,1,22.28,10l-.94-1.57L17.22,1.56a.84.84,0,0,0-1.44,0L11.66,8.39,10.72,10a.74.74,0,0,1-1.11.19L2.73,4.48a.5.5,0,0,0-.82.38V20.19H31.09V4.86A.5.5,0,0,0,30.27,4.48Z" fill="#ffc027" stroke="#000" stroke-linecap="round" stroke-linejoin="round" stroke-width="1.42"/>
    <rect x="1.09" y="17.19" width="30.82" height="3.65" stroke-width="1.42" stroke="#000" stroke-linecap="round" stroke-linejoin="round" fill="#ffc027"/>
    <line x1="28.82" y1="9.6" x2="28.82" y2="14.77" fill="#ffc027" stroke="#fff" stroke-linecap="round" stroke-linejoin="round" stroke-width="1.42"/>
    <rect x="15.05" y="9.12" width="3.32" height="5.22" rx="1.66" stroke-width="1.42" stroke="#000" stroke-linecap="round" stroke-linejoin="round" fill="#f15a24"/>
  </g>
</svg>
