<svg xmlns="http://www.w3.org/2000/svg" width="46.07" height="45.43">
  <g>
    <path d="M24.17,7.64l5-6.41a1.44,1.44,0,0,1,2.58.94l-.3,8.11a1.45,1.45,0,0,0,1.75,1.47L41.13,10a1.45,1.45,0,0,1,1.37,2.39l-5.44,6a1.44,1.44,0,0,0,.39,2.24l7.18,3.8a1.45,1.45,0,0,1-.48,2.71l-8,1.11a1.45,1.45,0,0,0-1.14,2L38,37.81a1.44,1.44,0,0,1-2.11,1.76L29,35.26A1.44,1.44,0,0,0,26.9,36l-2.49,7.72a1.44,1.44,0,0,1-2.75,0L19.17,36A1.45,1.45,0,0,0,17,35.26l-6.87,4.31A1.44,1.44,0,0,1,8,37.81l3.06-7.52a1.45,1.45,0,0,0-1.14-2l-8-1.11a1.45,1.45,0,0,1-.48-2.71l7.17-3.8A1.44,1.44,0,0,0,9,18.45l-5.44-6A1.45,1.45,0,0,1,4.94,10l7.94,1.71a1.44,1.44,0,0,0,1.74-1.47l-.3-8.11a1.45,1.45,0,0,1,2.59-.94l5,6.41A1.45,1.45,0,0,0,24.17,7.64Z" fill="#fff" stroke="#000" stroke-linecap="round" stroke-linejoin="round" stroke-width="1.34"/>
    <path d="M18.72,29.29c-.29-.66-.81-1.67-1.32-2.55A10.21,10.21,0,0,1,15.27,31,5.66,5.66,0,0,0,14,29.64c1.73-2.17,2.18-4.84,2.28-7.51l-1.53.47a45.25,45.25,0,0,0-.86-5l1.47-.36A42.76,42.76,0,0,1,16.26,22c0-.49,0-1,0-1.45V14.27H18v6.26c0,.4,0,.81,0,1.23a34.44,34.44,0,0,0,.74-4.56l1.68.58c-.42,1.49-.82,3.34-1.19,4.47L18,21.78a25.58,25.58,0,0,1-.16,2.62c.62.89,1.92,3,2.23,3.53Zm10.22-4.87a8.94,8.94,0,0,0,2.53,1.39,6.93,6.93,0,0,0-1.12,1.3,8.79,8.79,0,0,1-3.17-2.69H24A10.18,10.18,0,0,1,20.37,27a6.22,6.22,0,0,0-1.14-1.32,10,10,0,0,0,2.68-1.28H19.67V22.89h2.71v-.84H20.24V20.57h2.14v-.75H20.7v-5.3h9.43v5.3H28.3v.75h2.16v1.48H28.3v.84H31v1.53Zm.18,2.34c-.36.42-.78.86-1.17,1.25a23.6,23.6,0,0,1,2.57,1.41l-1.16,1.22a28.86,28.86,0,0,0-3-1.76v.61c0,.82-.14,1.21-.71,1.45a5.7,5.7,0,0,1-2.27.27,5.58,5.58,0,0,0-.64-1.54c.62,0,1.24,0,1.43,0s.27,0,.27-.22v-.68c-1.43.65-2.91,1.31-4.12,1.8l-.66-1.48c1.23-.41,3-1.1,4.78-1.82v-2.4h1.92v2.4l.28.13A15.21,15.21,0,0,0,27.9,26Zm-6.1-1A6.26,6.26,0,0,1,24.1,27l-1.3.94a5.24,5.24,0,0,0-1-1.34Zm-.44-9.17h5.57v-.7H22.58Zm0,1.92h5.57V17.8H22.58Zm1.76,2.09h2v-.75h-2Zm0,2.32h2v-.84h-2Z"/>
  </g>
</svg>
